<mxfile host="app.diagrams.net" modified="2021-11-15T06:36:59.139Z" agent="5.0 (Macintosh; Intel Mac OS X 10_15_7) AppleWebKit/537.36 (KHTML, like Gecko) Chrome/95.0.4638.69 Safari/537.36" etag="zOtdyEYU5rAWUjq_QJbZ" version="15.7.3" type="github">
  <diagram id="4PK8xAGKhIod-vx-h2qh" name="Page-1">
    <mxGraphModel dx="2163" dy="1390" grid="1" gridSize="10" guides="1" tooltips="1" connect="1" arrows="1" fold="1" page="1" pageScale="1" pageWidth="827" pageHeight="1169" math="0" shadow="0">
      <root>
        <mxCell id="0" />
        <mxCell id="1" parent="0" />
        <mxCell id="FkVi5VcHRNaQ8V13o6_U-20" style="edgeStyle=orthogonalEdgeStyle;rounded=0;orthogonalLoop=1;jettySize=auto;html=1;exitX=1;exitY=0.5;exitDx=0;exitDy=0;entryX=0;entryY=0.5;entryDx=0;entryDy=0;" edge="1" parent="1" source="FkVi5VcHRNaQ8V13o6_U-1" target="FkVi5VcHRNaQ8V13o6_U-4">
          <mxGeometry relative="1" as="geometry" />
        </mxCell>
        <mxCell id="FkVi5VcHRNaQ8V13o6_U-41" style="edgeStyle=orthogonalEdgeStyle;rounded=0;orthogonalLoop=1;jettySize=auto;html=1;exitX=1;exitY=0.5;exitDx=0;exitDy=0;" edge="1" parent="1" source="FkVi5VcHRNaQ8V13o6_U-1" target="FkVi5VcHRNaQ8V13o6_U-8">
          <mxGeometry relative="1" as="geometry" />
        </mxCell>
        <mxCell id="FkVi5VcHRNaQ8V13o6_U-45" style="edgeStyle=orthogonalEdgeStyle;rounded=0;orthogonalLoop=1;jettySize=auto;html=1;exitX=1;exitY=0.5;exitDx=0;exitDy=0;entryX=0;entryY=0.5;entryDx=0;entryDy=0;" edge="1" parent="1" source="FkVi5VcHRNaQ8V13o6_U-1" target="FkVi5VcHRNaQ8V13o6_U-12">
          <mxGeometry relative="1" as="geometry" />
        </mxCell>
        <mxCell id="FkVi5VcHRNaQ8V13o6_U-1" value="trim-newlines" style="rounded=1;whiteSpace=wrap;html=1;fillColor=#fff2cc;strokeColor=#d6b656;" vertex="1" parent="1">
          <mxGeometry x="60" y="370" width="110" height="40" as="geometry" />
        </mxCell>
        <mxCell id="FkVi5VcHRNaQ8V13o6_U-25" style="edgeStyle=orthogonalEdgeStyle;rounded=0;orthogonalLoop=1;jettySize=auto;html=1;exitX=1;exitY=0.5;exitDx=0;exitDy=0;" edge="1" parent="1" source="FkVi5VcHRNaQ8V13o6_U-2" target="FkVi5VcHRNaQ8V13o6_U-24">
          <mxGeometry relative="1" as="geometry" />
        </mxCell>
        <mxCell id="FkVi5VcHRNaQ8V13o6_U-2" value="&lt;pre style=&quot;background-color: #212121 ; color: #eeffff ; font-family: &amp;#34;menlo&amp;#34; , monospace ; font-size: 9.0pt&quot;&gt;meow@^&lt;span style=&quot;color: #f78c6c&quot;&gt;3.3&lt;/span&gt;.&lt;span style=&quot;color: #f78c6c&quot;&gt;0&lt;/span&gt;&lt;/pre&gt;" style="rounded=1;whiteSpace=wrap;html=1;fillColor=#e1d5e7;strokeColor=#9673a6;" vertex="1" parent="1">
          <mxGeometry x="510" y="232.5" width="100" height="30" as="geometry" />
        </mxCell>
        <mxCell id="FkVi5VcHRNaQ8V13o6_U-21" style="edgeStyle=orthogonalEdgeStyle;rounded=0;orthogonalLoop=1;jettySize=auto;html=1;exitX=1;exitY=0.5;exitDx=0;exitDy=0;" edge="1" parent="1" source="FkVi5VcHRNaQ8V13o6_U-4" target="FkVi5VcHRNaQ8V13o6_U-2">
          <mxGeometry relative="1" as="geometry" />
        </mxCell>
        <mxCell id="FkVi5VcHRNaQ8V13o6_U-4" value="&lt;pre style=&quot;background-color: #212121 ; color: #eeffff ; font-family: &amp;#34;menlo&amp;#34; , monospace ; font-size: 9.0pt&quot;&gt;trim-newlines &lt;span style=&quot;color: #c3e88d&quot;&gt;&quot;^1.0.0&quot;&lt;/span&gt;&lt;/pre&gt;" style="rounded=1;whiteSpace=wrap;html=1;fillColor=#f8cecc;strokeColor=#b85450;" vertex="1" parent="1">
          <mxGeometry x="280" y="230" width="170" height="35" as="geometry" />
        </mxCell>
        <mxCell id="FkVi5VcHRNaQ8V13o6_U-44" style="edgeStyle=orthogonalEdgeStyle;rounded=0;orthogonalLoop=1;jettySize=auto;html=1;exitX=1;exitY=0.5;exitDx=0;exitDy=0;entryX=0;entryY=0.5;entryDx=0;entryDy=0;" edge="1" parent="1" source="FkVi5VcHRNaQ8V13o6_U-6" target="FkVi5VcHRNaQ8V13o6_U-43">
          <mxGeometry relative="1" as="geometry" />
        </mxCell>
        <mxCell id="FkVi5VcHRNaQ8V13o6_U-6" value="&lt;pre style=&quot;background-color: #212121 ; color: #eeffff ; font-family: &amp;#34;menlo&amp;#34; , monospace ; font-size: 9.0pt&quot;&gt;&lt;pre style=&quot;font-family: &amp;#34;menlo&amp;#34; , monospace ; font-size: 9pt&quot;&gt;meow@^&lt;span style=&quot;color: #f78c6c&quot;&gt;5.0&lt;/span&gt;.&lt;span style=&quot;color: #f78c6c&quot;&gt;0&lt;/span&gt;&lt;/pre&gt;&lt;/pre&gt;" style="rounded=1;whiteSpace=wrap;html=1;fillColor=#e1d5e7;strokeColor=#9673a6;" vertex="1" parent="1">
          <mxGeometry x="510" y="375" width="100" height="30" as="geometry" />
        </mxCell>
        <mxCell id="FkVi5VcHRNaQ8V13o6_U-42" style="edgeStyle=orthogonalEdgeStyle;rounded=0;orthogonalLoop=1;jettySize=auto;html=1;exitX=1;exitY=0.5;exitDx=0;exitDy=0;" edge="1" parent="1" source="FkVi5VcHRNaQ8V13o6_U-8" target="FkVi5VcHRNaQ8V13o6_U-6">
          <mxGeometry relative="1" as="geometry" />
        </mxCell>
        <mxCell id="FkVi5VcHRNaQ8V13o6_U-8" value="&lt;pre style=&quot;background-color: #212121 ; color: #eeffff ; font-family: &amp;#34;menlo&amp;#34; , monospace ; font-size: 9.0pt&quot;&gt;&lt;pre style=&quot;font-family: &amp;#34;menlo&amp;#34; , monospace ; font-size: 9pt&quot;&gt;trim-newlines &lt;span style=&quot;color: #c3e88d&quot;&gt;&quot;^2.0.0&quot;&lt;/span&gt;&lt;/pre&gt;&lt;/pre&gt;" style="rounded=1;whiteSpace=wrap;html=1;fillColor=#f8cecc;strokeColor=#b85450;" vertex="1" parent="1">
          <mxGeometry x="280" y="372.5" width="170" height="35" as="geometry" />
        </mxCell>
        <mxCell id="FkVi5VcHRNaQ8V13o6_U-50" style="edgeStyle=orthogonalEdgeStyle;rounded=0;orthogonalLoop=1;jettySize=auto;html=1;exitX=1;exitY=0.5;exitDx=0;exitDy=0;entryX=0;entryY=0.5;entryDx=0;entryDy=0;" edge="1" parent="1" source="FkVi5VcHRNaQ8V13o6_U-10" target="FkVi5VcHRNaQ8V13o6_U-49">
          <mxGeometry relative="1" as="geometry" />
        </mxCell>
        <mxCell id="FkVi5VcHRNaQ8V13o6_U-10" value="&lt;pre style=&quot;background-color: #212121 ; color: #eeffff ; font-family: &amp;#34;menlo&amp;#34; , monospace ; font-size: 9.0pt&quot;&gt;&lt;pre style=&quot;font-family: &amp;#34;menlo&amp;#34; , monospace ; font-size: 9pt&quot;&gt;&lt;pre style=&quot;font-family: &amp;#34;menlo&amp;#34; , monospace ; font-size: 9pt&quot;&gt;meow@^&lt;span style=&quot;color: #f78c6c&quot;&gt;6.1&lt;/span&gt;.&lt;span style=&quot;color: #f78c6c&quot;&gt;0&lt;/span&gt;&lt;/pre&gt;&lt;/pre&gt;&lt;/pre&gt;" style="rounded=1;whiteSpace=wrap;html=1;fillColor=#e1d5e7;strokeColor=#9673a6;" vertex="1" parent="1">
          <mxGeometry x="510" y="460" width="100" height="30" as="geometry" />
        </mxCell>
        <mxCell id="FkVi5VcHRNaQ8V13o6_U-46" style="edgeStyle=orthogonalEdgeStyle;rounded=0;orthogonalLoop=1;jettySize=auto;html=1;exitX=1;exitY=0.5;exitDx=0;exitDy=0;entryX=0;entryY=0.5;entryDx=0;entryDy=0;" edge="1" parent="1" source="FkVi5VcHRNaQ8V13o6_U-12" target="FkVi5VcHRNaQ8V13o6_U-10">
          <mxGeometry relative="1" as="geometry" />
        </mxCell>
        <mxCell id="FkVi5VcHRNaQ8V13o6_U-47" style="edgeStyle=orthogonalEdgeStyle;rounded=0;orthogonalLoop=1;jettySize=auto;html=1;exitX=1;exitY=0.5;exitDx=0;exitDy=0;entryX=0;entryY=0.5;entryDx=0;entryDy=0;" edge="1" parent="1" source="FkVi5VcHRNaQ8V13o6_U-12" target="FkVi5VcHRNaQ8V13o6_U-14">
          <mxGeometry relative="1" as="geometry" />
        </mxCell>
        <mxCell id="FkVi5VcHRNaQ8V13o6_U-48" style="edgeStyle=orthogonalEdgeStyle;rounded=0;orthogonalLoop=1;jettySize=auto;html=1;exitX=1;exitY=0.5;exitDx=0;exitDy=0;entryX=0;entryY=0.5;entryDx=0;entryDy=0;" edge="1" parent="1" source="FkVi5VcHRNaQ8V13o6_U-12" target="FkVi5VcHRNaQ8V13o6_U-17">
          <mxGeometry relative="1" as="geometry" />
        </mxCell>
        <mxCell id="FkVi5VcHRNaQ8V13o6_U-12" value="&lt;pre style=&quot;background-color: #212121 ; color: #eeffff ; font-family: &amp;#34;menlo&amp;#34; , monospace ; font-size: 9.0pt&quot;&gt;&lt;pre style=&quot;font-family: &amp;#34;menlo&amp;#34; , monospace ; font-size: 9pt&quot;&gt;&lt;pre style=&quot;font-family: &amp;#34;menlo&amp;#34; , monospace ; font-size: 9pt&quot;&gt;trim-newlines &lt;span style=&quot;color: #c3e88d&quot;&gt;&quot;^3.0.0&quot;&lt;/span&gt;&lt;/pre&gt;&lt;/pre&gt;&lt;/pre&gt;" style="rounded=1;whiteSpace=wrap;html=1;fillColor=#f8cecc;strokeColor=#b85450;" vertex="1" parent="1">
          <mxGeometry x="280" y="510" width="170" height="35" as="geometry" />
        </mxCell>
        <mxCell id="FkVi5VcHRNaQ8V13o6_U-52" style="edgeStyle=orthogonalEdgeStyle;rounded=0;orthogonalLoop=1;jettySize=auto;html=1;exitX=1;exitY=0.5;exitDx=0;exitDy=0;entryX=0;entryY=0.5;entryDx=0;entryDy=0;" edge="1" parent="1" source="FkVi5VcHRNaQ8V13o6_U-14" target="FkVi5VcHRNaQ8V13o6_U-51">
          <mxGeometry relative="1" as="geometry" />
        </mxCell>
        <mxCell id="FkVi5VcHRNaQ8V13o6_U-14" value="&lt;pre style=&quot;background-color: #212121 ; color: #eeffff ; font-family: &amp;#34;menlo&amp;#34; , monospace ; font-size: 9.0pt&quot;&gt;&lt;pre style=&quot;font-family: &amp;#34;menlo&amp;#34; , monospace ; font-size: 9pt&quot;&gt;&lt;pre style=&quot;font-family: &amp;#34;menlo&amp;#34; , monospace ; font-size: 9pt&quot;&gt;&lt;pre style=&quot;font-family: &amp;#34;menlo&amp;#34; , monospace ; font-size: 9pt&quot;&gt;meow@^&lt;span style=&quot;color: #f78c6c&quot;&gt;7.0&lt;/span&gt;.&lt;span style=&quot;color: #f78c6c&quot;&gt;0&lt;/span&gt;&lt;/pre&gt;&lt;/pre&gt;&lt;/pre&gt;&lt;/pre&gt;" style="rounded=1;whiteSpace=wrap;html=1;fillColor=#e1d5e7;strokeColor=#9673a6;" vertex="1" parent="1">
          <mxGeometry x="510" y="512.5" width="100" height="30" as="geometry" />
        </mxCell>
        <mxCell id="FkVi5VcHRNaQ8V13o6_U-54" style="edgeStyle=orthogonalEdgeStyle;rounded=0;orthogonalLoop=1;jettySize=auto;html=1;exitX=1;exitY=0.5;exitDx=0;exitDy=0;entryX=-0.02;entryY=0.489;entryDx=0;entryDy=0;entryPerimeter=0;" edge="1" parent="1" source="FkVi5VcHRNaQ8V13o6_U-17" target="FkVi5VcHRNaQ8V13o6_U-53">
          <mxGeometry relative="1" as="geometry" />
        </mxCell>
        <mxCell id="FkVi5VcHRNaQ8V13o6_U-17" value="&lt;pre style=&quot;background-color: #212121 ; color: #eeffff ; font-family: &amp;#34;menlo&amp;#34; , monospace ; font-size: 9.0pt&quot;&gt;&lt;pre style=&quot;font-family: &amp;#34;menlo&amp;#34; , monospace ; font-size: 9pt&quot;&gt;&lt;pre style=&quot;font-family: &amp;#34;menlo&amp;#34; , monospace ; font-size: 9pt&quot;&gt;&lt;pre style=&quot;font-family: &amp;#34;menlo&amp;#34; , monospace ; font-size: 9pt&quot;&gt;&lt;pre style=&quot;font-family: &amp;#34;menlo&amp;#34; , monospace ; font-size: 9pt&quot;&gt;meow@^&lt;span style=&quot;color: #f78c6c&quot;&gt;8.0&lt;/span&gt;.&lt;span style=&quot;color: #f78c6c&quot;&gt;0&lt;/span&gt;&lt;/pre&gt;&lt;/pre&gt;&lt;/pre&gt;&lt;/pre&gt;&lt;/pre&gt;" style="rounded=1;whiteSpace=wrap;html=1;fillColor=#e1d5e7;strokeColor=#9673a6;" vertex="1" parent="1">
          <mxGeometry x="510" y="570" width="100" height="30" as="geometry" />
        </mxCell>
        <mxCell id="FkVi5VcHRNaQ8V13o6_U-28" style="edgeStyle=orthogonalEdgeStyle;rounded=0;orthogonalLoop=1;jettySize=auto;html=1;exitX=1;exitY=0.5;exitDx=0;exitDy=0;entryX=0;entryY=0.5;entryDx=0;entryDy=0;" edge="1" parent="1" source="FkVi5VcHRNaQ8V13o6_U-24" target="FkVi5VcHRNaQ8V13o6_U-27">
          <mxGeometry relative="1" as="geometry" />
        </mxCell>
        <mxCell id="FkVi5VcHRNaQ8V13o6_U-24" value="&lt;pre style=&quot;background-color: #212121 ; color: #eeffff ; font-family: &amp;#34;menlo&amp;#34; , monospace ; font-size: 9.0pt&quot;&gt;&lt;pre style=&quot;font-family: &amp;#34;menlo&amp;#34; , monospace ; font-size: 9pt&quot;&gt;lpad-align@^&lt;span style=&quot;color: #f78c6c&quot;&gt;1.0&lt;/span&gt;.&lt;span style=&quot;color: #f78c6c&quot;&gt;1&lt;/span&gt;&lt;/pre&gt;&lt;/pre&gt;" style="rounded=1;whiteSpace=wrap;html=1;fillColor=#e1d5e7;strokeColor=#9673a6;" vertex="1" parent="1">
          <mxGeometry x="650" y="232.5" width="140" height="30" as="geometry" />
        </mxCell>
        <mxCell id="FkVi5VcHRNaQ8V13o6_U-30" style="edgeStyle=orthogonalEdgeStyle;rounded=0;orthogonalLoop=1;jettySize=auto;html=1;exitX=1;exitY=0.5;exitDx=0;exitDy=0;entryX=0;entryY=0.5;entryDx=0;entryDy=0;" edge="1" parent="1" source="FkVi5VcHRNaQ8V13o6_U-27" target="FkVi5VcHRNaQ8V13o6_U-29">
          <mxGeometry relative="1" as="geometry" />
        </mxCell>
        <mxCell id="FkVi5VcHRNaQ8V13o6_U-27" value="&lt;pre style=&quot;background-color: #212121 ; color: #eeffff ; font-family: &amp;#34;menlo&amp;#34; , monospace ; font-size: 9.0pt&quot;&gt;&lt;pre style=&quot;font-family: &amp;#34;menlo&amp;#34; , monospace ; font-size: 9pt&quot;&gt;&lt;pre style=&quot;font-family: &amp;#34;menlo&amp;#34; , monospace ; font-size: 9pt&quot;&gt;squeak@^&lt;span style=&quot;color: #f78c6c&quot;&gt;1.0&lt;/span&gt;.&lt;span style=&quot;color: #f78c6c&quot;&gt;0&lt;/span&gt;&lt;/pre&gt;&lt;/pre&gt;&lt;/pre&gt;" style="rounded=1;whiteSpace=wrap;html=1;fillColor=#e1d5e7;strokeColor=#9673a6;" vertex="1" parent="1">
          <mxGeometry x="827" y="232.5" width="103" height="30" as="geometry" />
        </mxCell>
        <mxCell id="FkVi5VcHRNaQ8V13o6_U-32" style="edgeStyle=orthogonalEdgeStyle;rounded=0;orthogonalLoop=1;jettySize=auto;html=1;exitX=1;exitY=0.5;exitDx=0;exitDy=0;" edge="1" parent="1" source="FkVi5VcHRNaQ8V13o6_U-29" target="FkVi5VcHRNaQ8V13o6_U-31">
          <mxGeometry relative="1" as="geometry" />
        </mxCell>
        <mxCell id="FkVi5VcHRNaQ8V13o6_U-34" style="edgeStyle=orthogonalEdgeStyle;rounded=0;orthogonalLoop=1;jettySize=auto;html=1;exitX=1;exitY=0.5;exitDx=0;exitDy=0;" edge="1" parent="1" source="FkVi5VcHRNaQ8V13o6_U-29" target="FkVi5VcHRNaQ8V13o6_U-33">
          <mxGeometry relative="1" as="geometry" />
        </mxCell>
        <mxCell id="FkVi5VcHRNaQ8V13o6_U-29" value="&lt;pre style=&quot;background-color: #212121 ; color: #eeffff ; font-family: &amp;#34;menlo&amp;#34; , monospace ; font-size: 9.0pt&quot;&gt;&lt;pre style=&quot;font-family: &amp;#34;menlo&amp;#34; , monospace ; font-size: 9pt&quot;&gt;&lt;pre style=&quot;font-family: &amp;#34;menlo&amp;#34; , monospace ; font-size: 9pt&quot;&gt;&lt;pre style=&quot;font-family: &amp;#34;menlo&amp;#34; , monospace ; font-size: 9pt&quot;&gt;logalot@^&lt;span style=&quot;color: #f78c6c&quot;&gt;2.0&lt;/span&gt;.&lt;span style=&quot;color: #f78c6c&quot;&gt;0&lt;/span&gt;&lt;/pre&gt;&lt;/pre&gt;&lt;/pre&gt;&lt;/pre&gt;" style="rounded=1;whiteSpace=wrap;html=1;fillColor=#e1d5e7;strokeColor=#9673a6;" vertex="1" parent="1">
          <mxGeometry x="970" y="232.5" width="120" height="30" as="geometry" />
        </mxCell>
        <mxCell id="FkVi5VcHRNaQ8V13o6_U-40" style="edgeStyle=orthogonalEdgeStyle;rounded=0;orthogonalLoop=1;jettySize=auto;html=1;exitX=1;exitY=0.5;exitDx=0;exitDy=0;" edge="1" parent="1" source="FkVi5VcHRNaQ8V13o6_U-31" target="FkVi5VcHRNaQ8V13o6_U-39">
          <mxGeometry relative="1" as="geometry" />
        </mxCell>
        <mxCell id="FkVi5VcHRNaQ8V13o6_U-31" value="&lt;pre style=&quot;background-color: #212121 ; color: #eeffff ; font-family: &amp;#34;menlo&amp;#34; , monospace ; font-size: 9.0pt&quot;&gt;&lt;pre style=&quot;font-family: &amp;#34;menlo&amp;#34; , monospace ; font-size: 9pt&quot;&gt;&lt;pre style=&quot;font-family: &amp;#34;menlo&amp;#34; , monospace ; font-size: 9pt&quot;&gt;&lt;pre style=&quot;font-family: &amp;#34;menlo&amp;#34; , monospace ; font-size: 9pt&quot;&gt;&lt;pre style=&quot;font-family: &amp;#34;menlo&amp;#34; , monospace ; font-size: 9pt&quot;&gt;jpegtran-bin@^&lt;span style=&quot;color: #f78c6c&quot;&gt;4.0&lt;/span&gt;.&lt;span style=&quot;color: #f78c6c&quot;&gt;0&lt;/span&gt;&lt;/pre&gt;&lt;/pre&gt;&lt;/pre&gt;&lt;/pre&gt;&lt;/pre&gt;" style="rounded=1;whiteSpace=wrap;html=1;fillColor=#e1d5e7;strokeColor=#9673a6;" vertex="1" parent="1">
          <mxGeometry x="1120" y="160" width="150" height="30" as="geometry" />
        </mxCell>
        <mxCell id="FkVi5VcHRNaQ8V13o6_U-37" style="edgeStyle=orthogonalEdgeStyle;rounded=0;orthogonalLoop=1;jettySize=auto;html=1;exitX=1;exitY=0.5;exitDx=0;exitDy=0;entryX=0;entryY=0.5;entryDx=0;entryDy=0;" edge="1" parent="1" source="FkVi5VcHRNaQ8V13o6_U-33" target="FkVi5VcHRNaQ8V13o6_U-35">
          <mxGeometry relative="1" as="geometry" />
        </mxCell>
        <mxCell id="FkVi5VcHRNaQ8V13o6_U-33" value="&lt;pre style=&quot;background-color: #212121 ; color: #eeffff ; font-family: &amp;#34;menlo&amp;#34; , monospace ; font-size: 9.0pt&quot;&gt;&lt;pre style=&quot;font-family: &amp;#34;menlo&amp;#34; , monospace ; font-size: 9pt&quot;&gt;&lt;pre style=&quot;font-family: &amp;#34;menlo&amp;#34; , monospace ; font-size: 9pt&quot;&gt;&lt;pre style=&quot;font-family: &amp;#34;menlo&amp;#34; , monospace ; font-size: 9pt&quot;&gt;&lt;pre style=&quot;font-family: &amp;#34;menlo&amp;#34; , monospace ; font-size: 9pt&quot;&gt;&lt;pre style=&quot;font-family: &amp;#34;menlo&amp;#34; , monospace ; font-size: 9pt&quot;&gt;optipng-bin@^&lt;span style=&quot;color: #f78c6c&quot;&gt;6.0&lt;/span&gt;.&lt;span style=&quot;color: #f78c6c&quot;&gt;0&lt;/span&gt;&lt;/pre&gt;&lt;/pre&gt;&lt;/pre&gt;&lt;/pre&gt;&lt;/pre&gt;&lt;/pre&gt;" style="rounded=1;whiteSpace=wrap;html=1;fillColor=#e1d5e7;strokeColor=#9673a6;" vertex="1" parent="1">
          <mxGeometry x="1120" y="290" width="150" height="30" as="geometry" />
        </mxCell>
        <mxCell id="FkVi5VcHRNaQ8V13o6_U-35" value="&lt;pre style=&quot;background-color: #212121 ; color: #eeffff ; font-family: &amp;#34;menlo&amp;#34; , monospace ; font-size: 9.0pt&quot;&gt;&lt;pre style=&quot;font-family: &amp;#34;menlo&amp;#34; , monospace ; font-size: 9pt&quot;&gt;&lt;pre style=&quot;font-family: &amp;#34;menlo&amp;#34; , monospace ; font-size: 9pt&quot;&gt;&lt;pre style=&quot;font-family: &amp;#34;menlo&amp;#34; , monospace ; font-size: 9pt&quot;&gt;&lt;pre style=&quot;font-family: &amp;#34;menlo&amp;#34; , monospace ; font-size: 9pt&quot;&gt;&lt;pre style=&quot;font-family: &amp;#34;menlo&amp;#34; , monospace ; font-size: 9pt&quot;&gt;imagemin-optipng@^&lt;span style=&quot;color: #f78c6c&quot;&gt;7.0&lt;/span&gt;.&lt;span style=&quot;color: #f78c6c&quot;&gt;0&lt;/span&gt;&lt;/pre&gt;&lt;/pre&gt;&lt;/pre&gt;&lt;/pre&gt;&lt;/pre&gt;&lt;/pre&gt;" style="rounded=1;whiteSpace=wrap;html=1;fillColor=#e1d5e7;strokeColor=#9673a6;" vertex="1" parent="1">
          <mxGeometry x="1310" y="290" width="180" height="30" as="geometry" />
        </mxCell>
        <mxCell id="FkVi5VcHRNaQ8V13o6_U-39" value="&lt;pre style=&quot;background-color: #212121 ; color: #eeffff ; font-family: &amp;#34;menlo&amp;#34; , monospace ; font-size: 9.0pt&quot;&gt;&lt;pre style=&quot;font-family: &amp;#34;menlo&amp;#34; , monospace ; font-size: 9pt&quot;&gt;&lt;pre style=&quot;font-family: &amp;#34;menlo&amp;#34; , monospace ; font-size: 9pt&quot;&gt;&lt;pre style=&quot;font-family: &amp;#34;menlo&amp;#34; , monospace ; font-size: 9pt&quot;&gt;&lt;pre style=&quot;font-family: &amp;#34;menlo&amp;#34; , monospace ; font-size: 9pt&quot;&gt;&lt;pre style=&quot;font-family: &amp;#34;menlo&amp;#34; , monospace ; font-size: 9pt&quot;&gt;imagemin-jpegtran@^&lt;span style=&quot;color: #f78c6c&quot;&gt;6.0&lt;/span&gt;.&lt;span style=&quot;color: #f78c6c&quot;&gt;0&lt;/span&gt;&lt;/pre&gt;&lt;/pre&gt;&lt;/pre&gt;&lt;/pre&gt;&lt;/pre&gt;&lt;/pre&gt;" style="rounded=1;whiteSpace=wrap;html=1;fillColor=#e1d5e7;strokeColor=#9673a6;" vertex="1" parent="1">
          <mxGeometry x="1310" y="160" width="190" height="30" as="geometry" />
        </mxCell>
        <mxCell id="FkVi5VcHRNaQ8V13o6_U-43" value="&lt;pre style=&quot;background-color: #212121 ; color: #eeffff ; font-family: &amp;#34;menlo&amp;#34; , monospace ; font-size: 9.0pt&quot;&gt;&lt;pre style=&quot;font-family: &amp;#34;menlo&amp;#34; , monospace ; font-size: 9pt&quot;&gt;&lt;pre style=&quot;font-family: &amp;#34;menlo&amp;#34; , monospace ; font-size: 9pt&quot;&gt;stylelint@^&lt;span style=&quot;color: #f78c6c&quot;&gt;9.5&lt;/span&gt;.&lt;span style=&quot;color: #f78c6c&quot;&gt;0&lt;/span&gt;&lt;/pre&gt;&lt;/pre&gt;&lt;/pre&gt;" style="rounded=1;whiteSpace=wrap;html=1;fillColor=#e1d5e7;strokeColor=#9673a6;" vertex="1" parent="1">
          <mxGeometry x="650" y="375" width="130" height="30" as="geometry" />
        </mxCell>
        <mxCell id="FkVi5VcHRNaQ8V13o6_U-49" value="&lt;pre style=&quot;background-color: #212121 ; color: #eeffff ; font-family: &amp;#34;menlo&amp;#34; , monospace ; font-size: 9.0pt&quot;&gt;&lt;pre style=&quot;font-family: &amp;#34;menlo&amp;#34; , monospace ; font-size: 9pt&quot;&gt;&lt;pre style=&quot;font-family: &amp;#34;menlo&amp;#34; , monospace ; font-size: 9pt&quot;&gt;&lt;pre style=&quot;font-family: &amp;#34;menlo&amp;#34; , monospace ; font-size: 9pt&quot;&gt;extract-react-intl-messages@^&lt;span style=&quot;color: #f78c6c&quot;&gt;4.1&lt;/span&gt;.&lt;span style=&quot;color: #f78c6c&quot;&gt;1&lt;/span&gt;&lt;/pre&gt;&lt;/pre&gt;&lt;/pre&gt;&lt;/pre&gt;" style="rounded=1;whiteSpace=wrap;html=1;fillColor=#e1d5e7;strokeColor=#9673a6;" vertex="1" parent="1">
          <mxGeometry x="650" y="460" width="260" height="30" as="geometry" />
        </mxCell>
        <mxCell id="FkVi5VcHRNaQ8V13o6_U-51" value="&lt;pre style=&quot;background-color: #212121 ; color: #eeffff ; font-family: &amp;#34;menlo&amp;#34; , monospace ; font-size: 9.0pt&quot;&gt;&lt;pre style=&quot;font-family: &amp;#34;menlo&amp;#34; , monospace ; font-size: 9pt&quot;&gt;&lt;pre style=&quot;font-family: &amp;#34;menlo&amp;#34; , monospace ; font-size: 9pt&quot;&gt;&lt;pre style=&quot;font-family: &amp;#34;menlo&amp;#34; , monospace ; font-size: 9pt&quot;&gt;&lt;pre style=&quot;font-family: &amp;#34;menlo&amp;#34; , monospace ; font-size: 9pt&quot;&gt;conventional-changelog-writer@^&lt;span style=&quot;color: #f78c6c&quot;&gt;4.0&lt;/span&gt;.&lt;span style=&quot;color: #f78c6c&quot;&gt;0&lt;/span&gt;&lt;/pre&gt;&lt;/pre&gt;&lt;/pre&gt;&lt;/pre&gt;&lt;/pre&gt;" style="rounded=1;whiteSpace=wrap;html=1;fillColor=#e1d5e7;strokeColor=#9673a6;" vertex="1" parent="1">
          <mxGeometry x="650" y="512.5" width="280" height="30" as="geometry" />
        </mxCell>
        <mxCell id="FkVi5VcHRNaQ8V13o6_U-53" value="&lt;pre style=&quot;background-color: #212121 ; color: #eeffff ; font-family: &amp;#34;menlo&amp;#34; , monospace ; font-size: 9.0pt&quot;&gt;&lt;pre style=&quot;font-family: &amp;#34;menlo&amp;#34; , monospace ; font-size: 9pt&quot;&gt;&lt;pre style=&quot;font-family: &amp;#34;menlo&amp;#34; , monospace ; font-size: 9pt&quot;&gt;&lt;pre style=&quot;font-family: &amp;#34;menlo&amp;#34; , monospace ; font-size: 9pt&quot;&gt;&lt;pre style=&quot;font-family: &amp;#34;menlo&amp;#34; , monospace ; font-size: 9pt&quot;&gt;&lt;pre style=&quot;font-family: &amp;#34;menlo&amp;#34; , monospace ; font-size: 9pt&quot;&gt;conventional-commits-parser@^&lt;span style=&quot;color: #f78c6c&quot;&gt;3.2&lt;/span&gt;.&lt;span style=&quot;color: #f78c6c&quot;&gt;2&lt;/span&gt;&lt;/pre&gt;&lt;/pre&gt;&lt;/pre&gt;&lt;/pre&gt;&lt;/pre&gt;&lt;/pre&gt;" style="rounded=1;whiteSpace=wrap;html=1;fillColor=#e1d5e7;strokeColor=#9673a6;" vertex="1" parent="1">
          <mxGeometry x="650" y="570" width="260" height="30" as="geometry" />
        </mxCell>
      </root>
    </mxGraphModel>
  </diagram>
</mxfile>
